<?xml version="1.0" encoding="utf-8"?>
<!-- Generator: Adobe Illustrator 20.0.0, SVG Export Plug-In . SVG Version: 6.00 Build 0)  -->
<svg version="1.1" id="Layer_1" xmlns="http://www.w3.org/2000/svg" xmlns:xlink="http://www.w3.org/1999/xlink" x="0px" y="0px"
	 viewBox="0 0 1000 1000" style="enable-background:new 0 0 1000 1000;" xml:space="preserve">
<g>
	<path d="M232.1,122.2c0,29-10.5,53.7-31.6,74s-48.3,30.5-81.7,30.5c-31.9,0-58.1-10.2-78.4-30.5s-30.5-45-30.5-74
		C10,91.7,20.2,66.6,40.5,47s47.2-29.4,80.6-29.4S181,27.4,200.6,47S230.7,91.7,232.1,122.2L232.1,122.2 M16.5,982.4v-673h209.1
		v672.9L16.5,982.4L16.5,982.4 M349.7,525c0-62.4-1.5-134.3-4.4-215.6h180.8L537,403h4.4c43.6-72.6,112.5-108.9,206.9-108.9
		c72.6,0,131,24.3,175.3,73S990,488,990,583.8v398.5H780.9V610c0-97.3-35.6-145.9-106.7-145.9c-50.8,0-86.4,26.1-106.7,78.4
		c-4.4,8.7-6.5,26.1-6.5,52.3v387.6H349.7V525L349.7,525"/>
</g>
</svg>
