<?xml version="1.0" encoding="utf-8"?>
<!-- Generator: Adobe Illustrator 20.0.0, SVG Export Plug-In . SVG Version: 6.00 Build 0)  -->
<svg version="1.1" id="Layer_1" xmlns="http://www.w3.org/2000/svg" xmlns:xlink="http://www.w3.org/1999/xlink" x="0px" y="0px"
	 viewBox="0 0 1000 1000" style="enable-background:new 0 0 1000 1000;" xml:space="preserve">
<g>
	<path d="M990,196.6c-27.8,40.6-61.3,75.2-100.7,103.8c0.4,5.8,0.6,14.5,0.6,26.1c0,53.9-7.9,107.7-23.6,161.4
		c-15.8,53.7-39.7,105.2-71.8,154.5s-70.4,92.9-114.7,130.9c-44.4,38-97.8,68.2-160.4,90.8S389.9,898,318.6,898
		c-112.3,0-215.1-30-308.4-90.2c14.5,1.6,30.7,2.5,48.5,2.5c93.3,0,176.4-28.6,249.4-85.8c-43.5-0.8-82.5-14.2-116.9-40.1
		c-34.4-25.9-58-59-70.9-99.2c13.7,2.1,26.3,3.1,37.9,3.1c17.8,0,35.4-2.3,52.9-6.8c-46.4-9.5-84.9-32.7-115.4-69.3
		C65,475.5,49.8,432.9,49.8,384.3v-2.5c28.2,15.8,58.4,24.3,90.8,25.5c-27.4-18.2-49.1-42.1-65.3-71.5S51,274.5,51,240.1
		c0-36.5,9.1-70.3,27.4-101.4c50.2,61.8,111.2,111.2,183.1,148.3s148.9,57.7,231,61.9c-3.3-15.8-5-31.1-5-46
		c0-55.6,19.6-102.9,58.8-142.1S632.8,102,688.4,102c58,0,106.9,21.1,146.7,63.4c45.2-8.7,87.7-24.9,127.5-48.5
		c-15.3,47.7-44.8,84.6-88.3,110.7C912.8,223.5,951.4,213.1,990,196.6L990,196.6z"/>
</g>
</svg>
